<svg width="2068" height="1577" viewBox="0 0 2068 1577" fill="none" xmlns="http://www.w3.org/2000/svg">
<path d="M266.562 1243.91C166.667 1186.23 75.7559 1104.51 3.02871e-05 1003.7L112.399 919.065C194.967 1028.94 297.598 1111.5 409.188 1157.78C450.613 1174.96 513.03 1192.86 575.141 1180.66C626.597 1170.56 669.995 1139.39 688.381 1099.32C706.573 1059.7 693.669 1027.4 682.381 1006.56C664.858 974.2 633.101 941.592 592.979 914.749C563.604 895.092 532.319 878.056 499.203 860.025C413.37 813.29 324.621 764.948 262.869 667.194C220.637 600.332 199.521 528.768 200.123 454.459C200.672 387.508 219.715 319.231 255.217 257.024C298.795 180.669 364.441 115.706 445.043 69.1735C527.831 21.374 619.079 -2.4706 708.889 0.202372C783.615 2.42995 859.11 22.4705 927.182 58.1537C995.265 93.8436 1054.69 144.508 1099.03 204.693C1168.77 299.367 1198.41 403.457 1189.63 522.928C1182.26 622.951 1149.16 720.758 1117.14 815.36C1070.51 953.082 1026.47 1083.16 1062.38 1207.82C1077.7 1261 1105.2 1308.75 1141.93 1345.91C1184.18 1388.67 1238.53 1416.7 1303.44 1429.25C1365.09 1441.16 1432.13 1437.96 1497.32 1419.98C1579.38 1397.35 1646.9 1345.21 1677.95 1280.49C1704.39 1225.34 1703.06 1174.34 1673.73 1119.94C1648.63 1073.36 1602.72 1024.08 1533.41 969.281C1529.66 966.316 1525.9 963.352 1522.14 960.381C1457.66 909.54 1390.99 856.964 1342.81 782.726C1313.97 738.299 1295.3 688.43 1288.84 638.508C1281.33 580.52 1290.87 525.122 1316.44 478.301C1350.11 416.633 1408.07 371.357 1484.02 347.346C1544.75 328.156 1614.37 323.634 1680.09 334.625C1816.07 357.378 1947.39 423.968 2063.25 482.706L2067.6 484.909L2003.96 610.416L1999.6 608.206C1892.71 554.023 1771.56 492.586 1656.76 473.383C1575.94 459.863 1475.47 480.347 1439.8 545.66C1431.98 559.971 1423.63 584.538 1428.27 620.283C1431.99 649.046 1443.52 679.492 1460.73 706.001C1496.31 760.789 1551.16 804.046 1609.23 849.855C1613.05 852.853 1616.85 855.862 1620.64 858.865C1706.44 926.701 1762.63 988.393 1797.47 1053.04C1821.3 1097.26 1834.61 1142.78 1837.03 1188.33C1839.74 1239.39 1828.85 1290.84 1804.67 1341.25C1779.24 1394.26 1740.92 1440.53 1690.79 1478.76C1645.41 1513.36 1591.39 1539.93 1534.52 1555.6C1448.58 1579.31 1359.41 1583.38 1276.63 1567.38C1224.2 1557.25 1175.24 1539.11 1131.43 1513.81C1098.44 1494.76 1068.38 1471.67 1041.9 1444.89C988.713 1391.08 949.085 1322.63 927.286 1246.94C905.384 1170.91 902.85 1089.12 919.523 996.89C933.542 919.335 959.186 843.602 983.983 770.37C1014.53 680.158 1043.36 594.941 1049.42 512.774C1055.73 427.043 1035.52 355.711 985.844 288.276C921.225 200.579 813.439 144.082 704.538 140.826C576.492 137.002 441.916 213.432 377.28 326.685C353.364 368.586 341.062 411.903 340.713 455.438C340.334 502.313 354.131 548.235 381.735 591.935C423.995 658.828 490.046 694.801 566.527 736.443C600.948 755.182 636.542 774.567 671.216 797.774C712.765 825.565 769.876 872.703 806.009 939.416C845.113 1011.62 848.612 1087.17 816.122 1157.93C796.991 1199.6 765.922 1236.68 726.287 1265.18C689.845 1291.39 646.888 1309.9 602.077 1318.7C525.647 1333.72 440.287 1323.02 355.233 1287.74C325.035 1275.21 295.416 1260.57 266.562 1243.91Z" fill="#20438C"/>
</svg>
