<svg width="2161" height="1705" viewBox="0 0 2161 1705" fill="none" xmlns="http://www.w3.org/2000/svg">
<path d="M512.678 1702.02C379.664 1692.68 243.807 1653.8 114.031 1587.41L187.965 1442.54C329.414 1514.9 477.872 1548.71 617.266 1540.29C669.017 1537.17 742.942 1524.16 801.306 1480.02C849.659 1443.46 878.967 1389.09 877.781 1338.15C876.618 1287.76 846.85 1260.73 824.569 1244.79C789.97 1220.04 740.456 1202.24 685.169 1194.67C644.69 1189.12 603.551 1187.26 560.009 1185.29C447.146 1180.2 330.441 1174.91 216.765 1104.61C139.018 1056.52 80.8325 992.844 43.8241 915.322C10.4869 845.473 -4.30401 764.879 1.08273 682.257C7.69675 580.843 43.0111 480.091 103.202 390.917C165.022 299.318 247.766 228.328 342.444 185.622C421.223 150.091 509.823 132.682 598.63 135.287C687.453 137.893 774.86 160.446 851.418 200.53C971.841 263.586 1055.35 356.743 1106.73 485.337C1149.74 593.004 1164.87 711.406 1179.51 825.927C1200.8 992.655 1220.92 1150.13 1321.37 1261.48C1364.22 1308.98 1416.98 1344.67 1473.96 1364.68C1539.53 1387.72 1610.2 1389.33 1684.01 1369.5C1754.1 1350.65 1822.14 1313.36 1880.78 1261.66C1954.59 1196.59 1998.35 1108.21 1997.83 1025.24C1997.39 954.542 1970.16 902.215 1912.14 860.54C1862.47 824.852 1789.81 796.888 1690.03 775.051C1684.62 773.871 1679.22 772.692 1673.8 771.512C1581.05 751.337 1485.15 730.465 1397.49 677.724C1345.02 646.163 1300.36 603.796 1268.36 555.194C1231.2 498.738 1213.05 436.34 1215.9 374.74C1219.67 293.603 1256.96 217.206 1323.73 153.786C1377.11 103.088 1447.17 63.1298 1521.03 41.2694C1673.85 -3.95399 1844.04 -1.26545 1994.18 1.09267L1999.81 1.18048L1997.24 163.832L1991.59 163.743C1853.08 161.571 1696.08 159.085 1567.06 197.272C1476.23 224.156 1382.2 296.324 1378.21 382.26C1377.33 401.091 1381.1 430.848 1404.02 465.642C1422.46 493.645 1449.85 519.446 1481.16 538.275C1545.88 577.189 1624.79 594.36 1708.33 612.55C1713.81 613.735 1719.29 614.935 1724.75 616.134C1848.26 643.176 1937.9 678.824 2006.85 728.358C2054 762.239 2090.89 802.798 2116.47 848.903C2145.14 900.593 2159.88 959.567 2160.29 1024.2C2160.71 1092.17 2144.32 1159.65 2111.59 1224.76C2081.96 1283.7 2039.28 1338.67 1988.13 1383.76C1910.82 1451.91 1820.22 1501.31 1726.11 1526.61C1666.49 1542.64 1606.43 1548.57 1548.08 1544.48C1504.16 1541.39 1461.23 1532.62 1420.15 1518.2C1337.63 1489.22 1261.78 1438.16 1200.8 1370.55C1139.53 1302.63 1095.48 1218.92 1066.09 1114.64C1041.38 1026.95 1029.68 935.269 1018.36 846.612C1004.41 737.4 991.216 634.242 955.897 545.792C919.034 453.511 861.909 389.622 776.133 344.706C664.571 286.303 523.954 282.183 409.142 333.953C274.148 394.828 173.012 542.405 163.203 692.825C159.572 748.478 168.726 799.722 190.412 845.137C213.758 894.039 251.353 934.771 302.168 966.201C379.96 1014.31 466.815 1018.24 567.379 1022.78C612.638 1024.82 659.443 1026.93 707.226 1033.49C764.477 1041.33 847.695 1061.38 919.029 1112.41C996.23 1167.63 1038.13 1244.37 1040.2 1334.35C1041.43 1387.34 1027.92 1441.61 1001.17 1491.3C976.578 1536.99 941.312 1577.98 899.205 1609.82C827.389 1664.13 733.27 1696.25 627.021 1702.66C589.295 1704.94 551.099 1704.72 512.678 1702.02Z" fill="#305397"/>
</svg>
