<svg width="1961" height="1525" viewBox="0 0 1961 1525" fill="none" xmlns="http://www.w3.org/2000/svg">
<path d="M0.000209867 925.114L132.41 834.713C202.887 938.129 292.567 1017.47 391.757 1064.16C427.623 1081.03 481.799 1099.47 536.309 1091.39C579.19 1085.03 617.475 1060.42 633.836 1028.7C641.895 1013.08 648.971 990.648 632.036 955.61C618.383 927.353 591.211 896.872 557.507 871.975C531.621 852.859 503.588 835.848 473.921 817.837C398.334 771.963 312.647 719.975 257.578 623.187C223.179 562.708 206.017 498.279 206.017 433.91C206.017 363.033 226.792 292.232 268.222 226.804C313.312 155.595 378.95 96.3414 458.075 55.4469C539.378 13.4173 627.803 -5.3046 713.793 1.29422C785.267 6.78819 856.666 29.3695 920.263 66.5862C983.86 103.803 1038.52 155.019 1078.36 214.666C1141.13 308.654 1165 409.846 1151.33 524.039C1140.04 618.45 1104.81 708.7 1070.74 795.983C1022.51 919.574 976.95 1036.29 1003.89 1149.06C1015.28 1196.69 1037.6 1239.98 1068.44 1274.22C1122.82 1334.59 1233.42 1387.23 1380.82 1353.9C1453.8 1337.4 1515.01 1294.72 1544.56 1239.72C1569.32 1193.62 1570.13 1151.74 1547.14 1103.98C1526.72 1061.51 1487.4 1015.32 1426.97 962.784C1423.61 959.878 1420.25 956.957 1416.9 954.052C1358.32 903.259 1297.73 850.741 1254.92 777.609C1228.93 733.203 1213.04 683.939 1208.97 635.114C1204.2 577.813 1216.14 523.706 1243.48 478.649C1279.37 419.532 1338.13 377.714 1413.43 357.736C1472.83 341.966 1540.1 340.755 1602.85 354.301C1730.28 381.816 1850.37 449.938 1956.32 510.039L1960.26 512.279L1881.24 651.853L1877.3 649.613C1781.33 595.173 1672.55 533.483 1569.05 511.129C1531.13 502.941 1489.4 503.561 1454.51 512.809C1419.54 522.086 1394.62 538.629 1380.45 561.967C1357.24 600.197 1370.13 657.09 1393.2 696.501C1422.66 746.794 1470.83 788.566 1521.83 832.791C1525.25 835.757 1528.65 838.708 1532.05 841.66C1610.36 909.736 1661.05 970.972 1691.56 1034.39C1712.76 1078.46 1723.67 1123.43 1724.01 1168.03C1724.39 1218 1711.49 1267.75 1685.72 1315.72C1658.75 1365.92 1619.68 1408.93 1569.58 1443.59C1524.46 1474.8 1471.4 1497.89 1416.14 1510.4C1333.17 1529.15 1247.91 1529.04 1169.57 1510.05C1082.11 1488.86 1005.98 1444.45 949.4 1381.63C900.682 1327.52 865.633 1260.02 848.032 1186.39C830.387 1112.57 831.49 1034.33 851.404 947.165C867.961 874.714 895.163 805.003 921.473 737.607C953.286 656.091 983.33 579.099 992.206 504.969C1001.25 429.385 986.294 365.47 945.121 303.826C891.353 223.308 798.014 168.671 701.53 161.255C645.236 156.926 586.493 169.625 531.636 197.987C478.533 225.442 433.081 266.17 403.626 312.68C370.407 365.137 342.268 447.834 396.868 543.805C431.342 604.39 489.586 639.73 557.024 680.655C588.459 699.725 620.953 719.445 652.706 742.904C691.43 771.509 744.306 819.517 776.331 885.748C792.646 919.498 801.476 954.067 802.55 988.483C803.79 1027.83 794.944 1066.14 776.286 1102.31C755.586 1142.45 723.424 1177.47 683.28 1203.6C646.567 1227.49 603.882 1243.57 559.836 1250.11C485.368 1261.15 403.672 1247.06 323.594 1209.36C198.517 1150.49 86.6405 1052.2 0.04552 925.144L0.000209867 925.114Z" fill="#FDEDE4"/>
</svg>
