<svg width="2080" height="1399" viewBox="0 0 2080 1399" fill="none" xmlns="http://www.w3.org/2000/svg">
<path d="M2080 40.3232C2060.31 130.049 2019.8 213.359 1964.58 278.745C2001.36 381.698 2004.27 491.147 1971.48 587.38C1950.03 650.332 1912.46 707.398 1862.87 752.4C1810.77 799.677 1748.77 830.339 1683.58 841.08C1566.02 860.446 1444.7 810.96 1374.49 714.978C1327.37 650.557 1318.53 576.626 1310.74 511.386C1308.43 492.059 1306.25 473.818 1303.21 456.582C1296.42 418.155 1281.18 382.505 1259.11 353.483C1236.57 323.839 1208.92 303.534 1176.93 293.137C1147.09 283.427 1111.76 284.023 1077.47 294.79C1043.08 305.598 1011.99 325.691 989.957 351.366C931.237 419.821 933.06 529.958 994.118 602.116C1033.54 648.705 1093.03 663.812 1161.92 681.286C1219.37 695.863 1284.47 712.398 1342.4 750.998C1406 793.393 1450.8 857.192 1468.51 930.66C1485.6 1001.55 1476.79 1078.05 1443.7 1146.08C1420.2 1194.36 1385.99 1234.55 1342 1265.51C1301.77 1293.85 1255.48 1313.02 1204.42 1322.5C1147.39 1333.1 1087.26 1330.66 1030.52 1315.45C1029.88 1315.28 1029.26 1315.11 1028.63 1314.93C1011.37 1328.66 993.127 1340.65 974.373 1350.42C902.511 1387.9 816.083 1404.8 737.221 1396.79C641.574 1387.07 562.765 1341.57 515.285 1268.68C469.469 1198.33 456.658 1104.32 478.212 996.8C485.912 958.373 496.702 922.313 507.136 887.431C528.321 816.595 546.626 755.416 536.47 689.725C526.392 624.498 491.908 564.999 444.243 530.54C397.383 496.676 334.265 484.361 271.068 496.742C205.995 509.494 150.445 545.99 118.642 596.865L-3.83013e-05 522.51C52.2747 438.883 141.279 379.344 244.217 359.184C345.267 339.382 448.046 360.414 526.194 416.885C604.752 473.659 658.941 565.303 674.856 668.336C689.833 765.35 665.149 847.893 641.27 927.724C631.312 960.992 621.921 992.422 615.489 1024.46C605.597 1073.8 600.525 1142.93 632.566 1192.11C663.207 1239.15 714.082 1253.54 751.38 1257.34C793.828 1261.65 841.414 1254.52 883.427 1238.05C880.6 1235.59 877.827 1233.08 875.093 1230.53C835.326 1193.39 804.196 1142.6 789.668 1091.17C770.213 1022.28 781.77 957.328 822.211 908.292C843.844 882.074 873.191 862.761 907.094 852.43C939.452 842.575 973.646 841.596 1005.96 849.612C1076.41 867.073 1134.74 926.123 1154.53 1000.05C1170.55 1059.9 1162.27 1126.12 1131.3 1188.82C1147.34 1188.95 1163.32 1187.57 1178.92 1184.68C1215.99 1177.79 1283.35 1155.64 1317.87 1084.69C1336.74 1045.89 1341.92 1002.9 1332.45 963.624C1322.9 924.02 1299.52 890.87 1264.86 867.774C1226.87 842.456 1178.62 830.207 1127.54 817.243C1047 796.806 955.724 773.631 887.336 692.807C837.214 633.573 808.766 557.366 807.234 478.223C805.688 396.884 832.856 319.394 883.783 260.014C966.554 163.529 1104.89 122.323 1220.16 159.798C1278.93 178.9 1330.92 216.52 1370.49 268.559C1406 315.28 1430.41 371.857 1441.07 432.189C1444.79 453.275 1447.31 474.36 1449.75 494.745C1456.06 547.524 1462.01 597.394 1487.43 632.131C1526.16 685.082 1595.86 713.456 1660.85 702.742C1739.05 689.858 1810.64 625.305 1838.98 542.101C1852.75 501.65 1857.24 457.574 1852.28 411.104C1851.2 400.971 1849.66 390.799 1847.68 380.64C1840.75 385.032 1833.78 389.198 1826.74 393.14C1779.77 419.464 1731.59 435.1 1683.53 439.637C1595.77 447.918 1511.23 416.977 1457.39 356.856C1393.61 285.623 1382.32 178.318 1430.55 101.714C1459.84 55.2046 1510.16 20.6398 1568.62 6.89595C1643.3 -10.6576 1726.31 5.66579 1796.36 51.6992C1831.81 74.9937 1863.53 105.074 1891.19 141.583C1914.96 102.508 1932.84 57.7312 1943.26 10.2294L2080 40.3364L2080 40.3232ZM1540.73 208.028C1540.73 227.261 1548.05 248.082 1561.61 263.241C1585.58 290.015 1627.27 304.116 1670.39 300.042C1710.5 296.259 1753.2 277.938 1794.25 247.407C1772.69 213.927 1747.27 187.141 1719.57 168.939C1682.02 144.269 1637.55 134.718 1600.61 143.409C1577.98 148.727 1558.68 161.095 1548.98 176.505C1543.41 185.368 1540.73 196.413 1540.73 208.028ZM994.263 1146.98C995.821 1144.56 997.314 1142.11 998.767 1139.66C1011.13 1118.62 1030.24 1077.23 1019.3 1036.38C1012.71 1011.77 993.405 990.94 972.326 985.715C956.992 981.919 938.845 987.025 930.128 997.594C919.549 1010.43 917.608 1029.06 924.37 1052.99C931.898 1079.67 949.596 1108.39 970.556 1127.97C977.886 1134.82 985.81 1141.17 994.263 1146.98Z" fill="#305397"/>
</svg>
