<svg width="1309" height="1215" viewBox="0 0 1309 1215" fill="none" xmlns="http://www.w3.org/2000/svg">
<path d="M214.081 1198.86L238.75 1084.88C327.707 1104.21 414.753 1101.22 490.484 1076.23C517.863 1067.2 555.69 1049.82 580.424 1018.28C599.882 993.462 607.78 961.312 600.543 936.378C596.982 924.099 589.494 908.716 563.021 898.692C541.673 890.607 512.075 888.111 481.823 891.831C458.592 894.693 435.279 899.739 410.605 905.076C347.744 918.68 276.491 934.111 198.985 910.569C150.561 895.852 109.261 870.425 77.0509 836.442C41.5846 799.023 17.1244 751.248 6.25724 695.974C-5.57111 635.817 -0.567801 571.69 20.7426 510.506C42.6345 447.633 79.9494 393.502 128.649 353.956C169.133 321.092 218.127 297.286 270.326 285.11C322.524 272.935 377.01 272.623 427.892 284.176C508.059 302.389 571.3 343.866 621.225 410.993C662.505 466.489 689.065 531.765 714.756 594.892C751.136 684.278 785.49 768.696 856.145 814.75C885.989 834.198 919.432 845.883 952.848 848.522C1011.76 853.188 1096.5 825.631 1157.64 734.281C1187.92 689.05 1198.87 635.889 1186.95 592.067C1176.96 555.335 1156.42 532.825 1120.39 519.108C1088.35 506.909 1044.48 502.194 986.289 504.702C983.063 504.847 979.829 504.985 976.602 505.13C920.261 507.626 861.994 510.217 802.8 493.028C766.857 482.59 733.816 464.534 707.237 440.792C676.041 412.931 655.273 378.388 647.159 340.921C636.529 291.749 646.624 240.269 676.382 192.042C699.846 153.996 734.756 119.695 774.662 95.4464C855.71 46.2049 953.197 22.0788 1039.21 0.792186L1042.41 -1.43039e-05L1070.53 113.228L1067.33 114.02C989.422 133.302 901.125 155.164 835.297 195.153C811.179 209.806 789.457 231.017 775.668 253.354C761.846 275.753 756.969 296.955 761.167 316.366C768.044 348.164 803.314 371.753 835.217 381.014C875.933 392.827 922.269 390.775 971.325 388.602C974.613 388.458 977.886 388.314 981.159 388.17C1056.57 384.925 1113.97 391.892 1161.81 410.103C1195.05 422.763 1223.32 441.04 1245.81 464.421C1271.02 490.616 1289.11 523.335 1299.5 561.549C1310.38 601.551 1311.28 643.811 1302.17 687.176C1293.97 726.229 1277.52 764.973 1254.59 799.227C1220.18 850.643 1175.11 893.253 1124.25 922.425C1067.47 955.002 1005.06 969.654 943.748 964.799C890.953 960.611 838.671 942.513 792.535 912.447C746.283 882.307 707.711 840.445 674.609 784.463C647.096 737.928 626.574 687.513 606.74 638.767C582.745 579.811 560.081 524.13 527.672 480.552C494.624 436.123 454.746 409.863 402.163 397.921C333.486 382.317 256.868 400.178 202.219 444.543C170.333 470.427 145.674 506.525 130.905 548.95C116.608 590.017 112.992 634.263 120.715 673.556C129.426 717.874 155.951 775.614 232.8 798.959C281.317 813.694 329.751 803.206 385.832 791.067C411.971 785.405 438.994 779.557 467.497 776.053C502.254 771.777 554.193 770.664 604.242 789.605C629.744 799.259 651.704 813.091 669.492 830.723C689.838 850.878 704.336 875.528 712.586 903.962C721.742 935.51 722.288 970.093 714.165 1003.97C706.742 1034.96 692.249 1064.81 672.267 1090.3C638.481 1133.39 588.299 1166.84 527.157 1187C431.663 1218.51 323.416 1222.6 214.12 1198.85L214.081 1198.86Z" fill="#CAE7F7"/>
</svg>
