<svg width="2139" height="1200" viewBox="0 0 2139 1200" fill="none" xmlns="http://www.w3.org/2000/svg">
<path d="M2138.22 149.397C2098.52 232.385 2040 304.363 1971.22 355.504C1983.57 464.29 1961.4 571.67 1907.45 658.011C1872.16 714.493 1822.5 761.554 1763.86 794.105C1702.26 828.301 1634.81 844.037 1568.79 839.62C1449.74 831.65 1342.75 755.688 1296.22 646.065C1264.99 572.489 1273.26 498.385 1280.56 432.993C1282.72 413.621 1284.76 395.337 1285.74 377.837C1287.9 338.819 1281.18 300.578 1266.29 267.239C1251.08 233.185 1228.76 207.073 1199.95 189.629C1173.06 173.344 1138.48 165.855 1102.59 168.522C1066.59 171.204 1031.68 183.695 1004.34 203.698C931.448 257.031 908.069 364.835 951.121 449.139C978.919 503.57 1033.47 531.887 1096.65 564.66C1149.34 591.996 1209.03 622.988 1256.7 673.855C1309.03 729.721 1338.14 802.16 1338.63 877.84C1339.1 950.863 1313.04 1023.44 1265.23 1082.21C1231.29 1123.92 1188.76 1155.29 1138.79 1175.44C1093.09 1193.88 1043.58 1201.99 991.628 1199.58C933.602 1196.88 875.526 1180.77 823.678 1152.98C823.099 1152.67 822.533 1152.36 821.954 1152.05C801.987 1161.49 781.465 1169.01 760.946 1174.26C682.319 1194.38 594.186 1191.13 519.124 1165.3C428.085 1133.97 361.634 1071.61 331.99 989.689C303.385 910.633 312.367 816.042 357.942 716.132C374.227 680.423 392.984 647.728 411.125 616.099C447.961 551.87 479.783 496.399 484.885 430.029C489.958 364.128 469.925 298.237 431.32 253.751C393.365 210.029 334.635 183.604 270.187 181.242C203.826 178.812 141.327 201.708 98.6968 244.049L2.0397e-05 144.451C70.0714 74.8515 170.454 37.1282 275.427 40.9842C378.477 44.7571 473.887 88.7407 537.186 161.651C600.815 234.952 632.719 336.686 624.703 440.782C617.147 538.796 574.225 613.64 532.708 686.024C515.399 716.187 499.064 744.688 485.475 774.457C464.559 820.306 443.824 886.552 463.832 941.825C482.964 994.688 529.281 1020.34 564.781 1032.56C605.185 1046.46 653.212 1050.38 697.937 1043.92C695.744 1040.87 693.613 1037.79 691.531 1034.68C661.237 989.388 642.487 932.75 640.069 879.285C636.835 807.67 662.939 746.981 713.57 708.406C740.653 687.784 773.678 675.656 809.095 673.327C842.896 671.109 876.46 677.965 906.141 693.163C970.842 726.279 1014.22 797.177 1016.64 873.785C1018.59 935.794 995.391 998.469 950.872 1052.53C966.475 1056.32 982.371 1058.63 998.241 1059.37C1035.96 1061.12 1106.7 1054.91 1156.57 993.613C1183.83 960.095 1198.7 919.359 1198.44 878.903C1198.17 838.106 1182.95 800.444 1154.42 770.006C1123.17 736.643 1078.92 713.68 1032.07 689.371C958.213 651.048 874.509 607.602 826.29 513.176C790.949 443.971 780.617 363.169 797.2 285.651C814.272 205.99 858.461 136.64 921.681 90.3738C1024.42 15.2029 1168.72 6.62328 1272.55 69.4927C1325.5 101.542 1367.59 150.097 1394.28 209.875C1418.24 263.542 1429.12 324.281 1425.73 385.542C1424.54 406.952 1422.19 428.087 1419.9 448.518C1414 501.422 1408.42 551.408 1425.26 591.081C1450.94 651.559 1512.41 695.145 1578.23 699.543C1657.42 704.842 1741.96 658.251 1788.6 583.598C1811.27 547.303 1825.72 505.353 1831.49 458.909C1832.75 448.782 1833.58 438.513 1833.97 428.155C1826.2 430.854 1818.45 433.324 1810.69 435.559C1758.88 450.498 1708.33 454.739 1660.44 448.185C1572.97 436.213 1497.61 386.735 1458.85 315.818C1412.94 231.795 1426.44 124.589 1490.96 60.9147C1530.13 22.2541 1587.09 0.0459196 1647.24 0.000104211C1724.06 -0.0587693 1801.27 34.8172 1859.06 95.7023C1888.3 126.512 1912.36 163.088 1930.99 205.003C1963.1 172.333 1990.76 132.758 2011.77 88.8226L2138.22 149.41L2138.22 149.397ZM1574.1 189.74C1569.71 208.493 1572.09 230.466 1581.85 248.345C1599.11 279.926 1636.53 303.195 1679.51 309.072C1719.48 314.545 1765.3 306.435 1812.3 286.043C1798.93 248.475 1780.26 216.55 1757.41 192.476C1726.43 159.846 1685.26 140.376 1647.25 140.412C1623.96 140.426 1602.32 148.078 1589.35 160.89C1581.89 168.258 1576.76 178.416 1574.1 189.74ZM826.809 980.433C828.882 978.429 830.896 976.384 832.872 974.329C849.732 956.633 877.82 920.641 876.488 878.314C875.682 852.819 861.613 828.094 842.254 818.185C828.17 810.981 809.31 811.815 798.396 820.129C785.151 830.223 779 847.953 780.128 872.83C781.374 900.564 792.071 932.608 808.036 956.484C813.618 964.839 819.894 972.84 826.809 980.433Z" fill="#CAE7F7"/>
</svg>
