<svg width="543" height="214" viewBox="0 0 543 214" fill="none" xmlns="http://www.w3.org/2000/svg">
<g clip-path="url(#clip0_215_14391)">
<rect width="542.667" height="214" rx="20" fill="#20438C"/>
<path d="M802.594 155.677C849.759 189.042 891.336 233.987 924.475 287.754L864.52 324.788C828.4 266.184 781.017 220.284 727.494 192.065C707.625 181.585 677.321 169.783 645.781 173.006C619.653 175.675 596.573 189.225 585.558 208.36C574.66 227.285 579.608 243.988 584.278 254.899C591.527 271.846 605.864 289.571 624.638 304.807C638.383 315.963 653.202 325.901 668.887 336.418C709.543 363.68 751.579 391.878 777.875 443.475C795.858 478.767 803.093 515.43 799.37 552.463C796.013 585.829 783.371 619.004 762.8 648.394C737.549 684.468 701.818 713.844 659.475 733.339C615.984 753.366 569.377 761.056 524.709 755.586C487.543 751.034 450.814 737.562 418.507 716.63C386.196 695.695 358.893 667.69 339.55 635.631C309.126 585.201 299.141 531.923 309.022 472.743C317.301 423.197 338.317 375.942 358.644 330.235C388.243 263.696 416.198 200.848 404.026 137.023C398.836 109.795 387.319 84.7147 370.716 64.4903C351.609 41.2162 325.796 24.7314 294.001 15.4834C263.803 6.70461 230.22 5.21632 196.88 11.1812C154.908 18.6884 118.832 41.5823 100.369 72.4311C84.6394 98.714 82.9575 124.215 95.0783 152.696C105.452 177.082 126.076 203.776 158.122 234.297C159.858 235.949 161.594 237.6 163.335 239.255C193.152 267.581 223.977 296.873 244.589 336.117C256.925 359.603 263.939 385.334 264.865 410.53C265.937 439.796 258.627 466.985 243.722 489.16C224.087 518.365 193.098 538.276 154.109 546.753C122.938 553.527 88.0068 552.576 55.7379 544.068C-11.0321 526.457 -73.4604 487.198 -128.54 452.567L-130.606 451.269L-93.0845 391.605L-91.0126 392.907C-40.2001 424.854 17.3909 461.074 73.7632 475.939C113.449 486.403 164.5 480.815 185.299 449.884C189.858 443.106 195.154 431.239 194.487 413.198C193.954 398.681 189.608 382.965 182.244 368.952C167.024 339.988 141.66 315.888 114.806 290.367C113.043 288.696 111.284 287.02 109.53 285.348C69.867 247.565 44.6826 214.208 30.2824 180.36C20.4346 157.209 15.8927 133.894 16.782 111.066C17.7864 85.4757 25.5857 60.3188 39.9649 36.2898C55.0907 11.0214 76.3309 -10.2881 103.096 -27.0459C127.32 -42.2129 155.489 -52.9761 184.57 -58.1748C228.526 -66.0376 273.187 -63.9616 313.733 -52.1715C339.418 -44.7043 362.998 -33.3994 383.685 -18.7648C399.261 -7.7466 413.188 5.15225 425.163 19.7317C449.209 49.0168 465.82 84.983 473.206 123.733C480.628 162.663 478.124 203.572 465.562 248.801C454.998 286.834 438.721 323.424 422.98 358.806C403.593 402.391 385.285 443.564 378.48 484.264C371.385 526.731 378.179 563.237 399.849 599.158C428.038 645.872 479.193 679.013 533.355 685.652C597.041 693.457 667.678 661.536 705.131 608.03C718.989 588.234 727.119 567.197 729.298 545.5C731.646 522.139 726.88 498.601 715.126 475.535C697.13 440.227 665.844 419.243 629.618 394.953C613.314 384.022 596.455 372.714 580.231 359.543C560.789 343.769 534.476 317.63 519.528 282.693C503.351 244.884 505.085 207.039 524.548 173.248C536.009 153.345 553.212 136.282 574.292 123.892C593.674 112.5 615.95 105.249 638.705 102.921C677.515 98.9525 719.594 108.219 760.389 129.731C774.873 137.37 788.97 146.04 802.594 155.677Z" fill="#305397"/>
<rect x="142.666" y="30.938" width="174" height="46" rx="23" transform="rotate(-1.27261 142.666 30.938)" fill="#EBF0FB"/>
<path d="M160.39 57.551L160.203 49.153L161.487 49.1245L165.294 55.1735L164.622 55.1884L168.097 48.9777L169.381 48.9492L169.579 57.3468L168.104 57.3796L167.957 51.2974L168.269 51.2904L165.311 56.4814L164.615 56.4969L161.382 51.4434L161.742 51.4354L161.877 57.5179L160.39 57.551ZM174.585 57.3196C173.929 57.3342 173.342 57.2072 172.824 56.9387C172.306 56.6621 171.893 56.2792 171.586 55.7899C171.279 55.3006 171.119 54.74 171.105 54.1081C171.091 53.4683 171.226 52.9012 171.511 52.4067C171.796 51.9042 172.191 51.5074 172.697 51.2161C173.203 50.9248 173.783 50.7718 174.439 50.7573C175.103 50.7425 175.694 50.8694 176.212 51.138C176.738 51.4064 177.151 51.7813 177.449 52.2628C177.756 52.7441 177.917 53.3087 177.931 53.9565C177.945 54.5883 177.81 55.1555 177.525 55.6579C177.248 56.1602 176.853 56.5611 176.339 56.8606C175.833 57.1519 175.249 57.3049 174.585 57.3196ZM174.556 56.036C174.924 56.0278 175.25 55.9405 175.535 55.7742C175.819 55.6078 176.038 55.3709 176.191 55.0634C176.352 54.7558 176.428 54.398 176.419 53.9901C176.41 53.5742 176.318 53.2201 176.144 52.9279C175.977 52.6276 175.748 52.4006 175.456 52.247C175.165 52.0935 174.839 52.0207 174.479 52.0287C174.111 52.0369 173.785 52.1241 173.501 52.2905C173.225 52.4567 173.006 52.6936 172.845 53.0012C172.683 53.3009 172.607 53.6587 172.616 54.0746C172.625 54.4825 172.717 54.8365 172.892 55.1367C173.067 55.4369 173.296 55.6639 173.579 55.8176C173.871 55.9712 174.196 56.044 174.556 56.036ZM179.436 57.1279L179.294 50.7214L180.722 50.6897L180.761 52.4533L180.581 51.9411C180.764 51.505 181.056 51.1704 181.459 50.9374C181.87 50.7042 182.384 50.5808 182.999 50.5671L183.031 51.9947C182.967 51.9802 182.907 51.9735 182.851 51.9747C182.794 51.968 182.738 51.9652 182.682 51.9665C182.115 51.9791 181.666 52.1571 181.338 52.5005C181.009 52.8359 180.852 53.3315 180.867 53.9873L180.936 57.0945L179.436 57.1279ZM187.907 50.4581C188.419 50.4467 188.877 50.5366 189.281 50.7276C189.693 50.9185 190.02 51.2193 190.261 51.6301C190.502 52.0328 190.63 52.5581 190.644 53.206L190.726 56.8771L189.226 56.9104L189.149 53.4312C189.136 52.8634 188.991 52.4425 188.713 52.1686C188.443 51.8945 188.068 51.7628 187.588 51.7735C187.236 51.7813 186.926 51.8602 186.657 52.0102C186.388 52.1602 186.181 52.3809 186.035 52.6722C185.898 52.9553 185.834 53.3128 185.843 53.7447L185.915 56.9839L184.415 57.0172L184.273 50.6108L185.701 50.5791L185.739 52.3067L185.476 51.7844C185.69 51.3715 186.007 51.0524 186.426 50.827C186.853 50.5935 187.347 50.4705 187.907 50.4581ZM192.628 56.8348L192.486 50.4284L193.986 50.3951L194.128 56.8015L192.628 56.8348ZM193.218 49.3558C192.938 49.3621 192.704 49.2792 192.517 49.1074C192.337 48.9353 192.244 48.7253 192.239 48.4774C192.233 48.2214 192.316 48.0075 192.488 47.8357C192.668 47.6556 192.898 47.5625 193.178 47.5563C193.458 47.5501 193.688 47.629 193.868 47.793C194.055 47.9489 194.152 48.1508 194.157 48.3988C194.163 48.6627 194.08 48.8886 193.908 49.0764C193.736 49.2563 193.506 49.3494 193.218 49.3558ZM199.587 50.1986C200.099 50.1872 200.557 50.2771 200.962 50.4681C201.374 50.659 201.701 50.9598 201.942 51.3706C202.183 51.7733 202.311 52.2986 202.325 52.9465L202.407 56.6176L200.907 56.6509L200.83 53.1717C200.817 52.6039 200.672 52.183 200.394 51.9091C200.123 51.635 199.748 51.5033 199.268 51.514C198.917 51.5218 198.606 51.6007 198.338 51.7507C198.069 51.9007 197.862 52.1214 197.716 52.4127C197.578 52.6958 197.514 53.0533 197.524 53.4852L197.596 56.7244L196.096 56.7578L195.954 50.3513L197.381 50.3196L197.42 52.0472L197.156 51.5249C197.371 51.112 197.688 50.7929 198.107 50.5676C198.534 50.334 199.027 50.211 199.587 50.1986ZM207.278 58.922C206.686 58.9351 206.104 58.868 205.533 58.7207C204.969 58.5811 204.505 58.3674 204.138 58.0795L204.785 56.9368C205.07 57.1626 205.426 57.3387 205.853 57.4652C206.288 57.5996 206.725 57.6619 207.165 57.6521C207.869 57.6365 208.381 57.4611 208.702 57.1259C209.023 56.7987 209.176 56.3111 209.162 55.6633L209.136 54.5236L209.224 53.0693L209.144 51.6187L209.109 50.0591L210.537 50.0274L210.658 55.462C210.683 56.6217 210.406 57.4801 209.827 58.0371C209.247 58.6021 208.397 58.8971 207.278 58.922ZM207.026 56.2269C206.418 56.2404 205.863 56.1247 205.362 55.8798C204.868 55.6267 204.472 55.2714 204.174 54.8139C203.883 54.3562 203.731 53.8155 203.717 53.1916C203.704 52.5758 203.832 52.0328 204.101 51.5627C204.379 51.0924 204.759 50.7239 205.241 50.4571C205.731 50.1901 206.28 50.0499 206.888 50.0364C207.432 50.0243 207.922 50.1215 208.359 50.3278C208.796 50.5342 209.147 50.8624 209.413 51.3126C209.687 51.7627 209.832 52.3436 209.848 53.0554C209.864 53.7672 209.745 54.358 209.491 54.8278C209.245 55.2894 208.909 55.6369 208.482 55.8704C208.055 56.096 207.57 56.2148 207.026 56.2269ZM207.225 54.9501C207.601 54.9418 207.935 54.8583 208.228 54.6998C208.52 54.5333 208.744 54.3123 208.897 54.0368C209.059 53.7531 209.136 53.4313 209.128 53.0714C209.12 52.7115 209.029 52.3974 208.855 52.1292C208.689 51.8529 208.456 51.646 208.157 51.5086C207.858 51.3632 207.52 51.2947 207.144 51.303C206.768 51.3114 206.43 51.3949 206.13 51.5536C205.837 51.7042 205.61 51.9213 205.448 52.2049C205.294 52.4804 205.221 52.7981 205.229 53.158C205.237 53.5179 205.324 53.8361 205.49 54.1125C205.664 54.3807 205.901 54.5915 206.201 54.7448C206.508 54.8901 206.849 54.9585 207.225 54.9501ZM212.685 53.6046L212.272 47.9963L214.048 47.9569L213.873 53.5782L212.685 53.6046ZM213.348 56.4585C213.068 56.4647 212.834 56.3779 212.646 56.198C212.458 56.0182 212.362 55.8003 212.356 55.5443C212.35 55.2884 212.437 55.0704 212.617 54.8904C212.797 54.7023 213.027 54.6052 213.307 54.599C213.587 54.5928 213.817 54.6797 213.997 54.8597C214.177 55.0318 214.27 55.2458 214.275 55.5017C214.281 55.7576 214.198 55.9795 214.026 56.1674C213.854 56.3553 213.628 56.4523 213.348 56.4585ZM222.055 56.3011C221.399 56.3157 220.77 56.2376 220.166 56.067C219.561 55.8884 219.08 55.655 218.722 55.3669L219.235 54.1432C219.576 54.3997 219.997 54.6104 220.497 54.7753C220.997 54.9403 221.507 55.017 222.026 55.0054C222.466 54.9957 222.821 54.9398 223.091 54.8377C223.361 54.7357 223.558 54.6033 223.682 54.4405C223.807 54.2697 223.866 54.0803 223.862 53.8724C223.856 53.6164 223.76 53.4145 223.572 53.2667C223.385 53.1108 223.142 52.9922 222.844 52.9107C222.554 52.8212 222.228 52.7404 221.867 52.6684C221.513 52.5962 221.155 52.5122 220.793 52.4162C220.438 52.312 220.111 52.1793 219.812 52.0179C219.52 51.8483 219.279 51.6216 219.088 51.3378C218.898 51.0539 218.798 50.6881 218.788 50.2402C218.778 49.7843 218.888 49.3657 219.12 48.9845C219.359 48.5951 219.725 48.2829 220.216 48.0479C220.714 47.8048 221.348 47.6747 222.115 47.6576C222.619 47.6464 223.12 47.6993 223.619 47.8163C224.118 47.9332 224.554 48.1076 224.927 48.3394L224.462 49.562C224.081 49.3464 223.69 49.191 223.288 49.096C222.885 48.9929 222.5 48.9454 222.132 48.9536C221.7 48.9632 221.349 49.023 221.08 49.133C220.818 49.2428 220.625 49.3832 220.501 49.554C220.385 49.7246 220.329 49.9179 220.334 50.1338C220.34 50.3897 220.432 50.5957 220.612 50.7518C220.799 50.8997 221.038 51.0144 221.327 51.096C221.625 51.1774 221.955 51.2581 222.317 51.3381C222.679 51.41 223.037 51.4941 223.391 51.5903C223.753 51.6863 224.08 51.815 224.372 51.9766C224.671 52.138 224.912 52.3607 225.095 52.6447C225.285 52.9285 225.385 53.2904 225.395 53.7303C225.405 54.1782 225.29 54.5968 225.051 54.9862C224.819 55.3675 224.454 55.6797 223.955 55.9228C223.456 56.1579 222.823 56.284 222.055 56.3011ZM226.85 56.0746L226.653 47.1727L228.152 47.1394L228.35 56.0412L226.85 56.0746ZM233.331 56.0146C232.619 56.0304 231.993 55.9043 231.45 55.6363C230.916 55.3601 230.496 54.9773 230.189 54.488C229.89 53.9985 229.733 53.4379 229.719 52.806C229.705 52.1662 229.832 51.5992 230.101 51.1051C230.378 50.6028 230.762 50.2062 231.251 49.9153C231.749 49.6242 232.318 49.4715 232.958 49.4573C233.581 49.4434 234.14 49.567 234.634 49.8281C235.128 50.0892 235.521 50.4646 235.812 50.9543C236.102 51.4439 236.255 52.0247 236.27 52.6965C236.272 52.7605 236.269 52.8326 236.263 52.9127C236.265 52.9927 236.263 53.0688 236.256 53.1409L230.918 53.2595L230.895 52.2638L235.442 52.1628L234.861 52.4877C234.861 52.1197 234.778 51.7974 234.612 51.5211C234.446 51.2447 234.221 51.0296 233.937 50.8759C233.662 50.722 233.344 50.649 232.984 50.657C232.616 50.6652 232.294 50.7523 232.018 50.9185C231.749 51.0845 231.538 51.3133 231.385 51.6047C231.239 51.888 231.171 52.2217 231.179 52.6056L231.184 52.8455C231.193 53.2294 231.288 53.5674 231.471 53.8594C231.654 54.1514 231.907 54.3738 232.23 54.5267C232.553 54.6795 232.923 54.7514 233.339 54.7421C233.699 54.7341 234.022 54.6709 234.307 54.5526C234.593 54.4342 234.845 54.2526 235.063 54.0076L235.887 54.9136C235.607 55.2559 235.249 55.5239 234.813 55.7176C234.385 55.9032 233.891 56.0022 233.331 56.0146ZM241.334 55.8368C240.814 55.8484 240.336 55.739 239.899 55.5086C239.469 55.2781 239.121 54.9257 238.855 54.4515C238.596 53.9692 238.458 53.3561 238.442 52.6123C238.425 51.8604 238.531 51.2419 238.761 50.7567C238.998 50.2713 239.326 49.908 239.745 49.6666C240.163 49.4172 240.645 49.2865 241.188 49.2744C241.82 49.2604 242.379 49.384 242.865 49.6453C243.359 49.9064 243.751 50.2778 244.042 50.7594C244.341 51.2409 244.498 51.8136 244.512 52.4774C244.527 53.1412 244.396 53.7243 244.119 54.2266C243.85 54.7207 243.475 55.1091 242.993 55.3919C242.519 55.6745 241.966 55.8228 241.334 55.8368ZM237.833 58.1591L237.639 49.4253L239.067 49.3936L239.1 50.9052L239.09 52.6099L239.248 54.3108L239.333 58.1258L237.833 58.1591ZM241.138 54.5569C241.498 54.5489 241.816 54.4618 242.092 54.2956C242.377 54.1292 242.599 53.8922 242.761 53.5846C242.922 53.2769 242.998 52.9191 242.989 52.5112C242.979 52.0954 242.888 51.7413 242.713 51.4491C242.538 51.1489 242.305 50.922 242.014 50.7685C241.73 50.6147 241.409 50.5419 241.049 50.5499C240.689 50.5578 240.367 50.645 240.082 50.8114C239.798 50.9777 239.575 51.2147 239.414 51.5224C239.253 51.8221 239.176 52.1798 239.186 52.5957C239.195 53.0036 239.287 53.3577 239.461 53.6579C239.636 53.9581 239.869 54.1849 240.161 54.3385C240.452 54.4921 240.778 54.5649 241.138 54.5569ZM248.419 55.6794C247.715 55.6951 247.167 55.5272 246.775 55.1758C246.383 54.8164 246.179 54.2808 246.164 53.569L246.036 47.8224L247.536 47.7891L247.662 53.4997C247.669 53.8036 247.75 54.0379 247.906 54.2025C248.07 54.3669 248.292 54.446 248.572 54.4397C248.907 54.4323 249.185 54.3381 249.405 54.1571L249.849 55.2156C249.676 55.3634 249.463 55.4762 249.208 55.5539C248.954 55.6315 248.691 55.6734 248.419 55.6794ZM245.039 50.5092L245.013 49.3095L249.284 49.2146L249.31 50.4143L245.039 50.5092ZM258.353 55.3747L258.324 54.079L258.234 53.805L258.184 51.5375C258.174 51.0976 258.034 50.7607 257.765 50.5266C257.496 50.2845 257.093 50.1694 256.557 50.1813C256.197 50.1893 255.843 50.2532 255.493 50.373C255.152 50.4926 254.863 50.6551 254.628 50.8603L254.016 49.7817C254.354 49.5101 254.757 49.3051 255.226 49.1666C255.703 49.02 256.198 48.941 256.709 48.9296C257.637 48.909 258.358 49.1171 258.872 49.5538C259.394 49.9823 259.665 50.6604 259.685 51.5882L259.769 55.3433L258.353 55.3747ZM256.339 55.5035C255.86 55.5141 255.438 55.4435 255.074 55.2915C254.711 55.1316 254.426 54.9098 254.219 54.6263C254.021 54.3347 253.918 54.0049 253.909 53.637C253.901 53.2771 253.978 52.9513 254.14 52.6596C254.309 52.3678 254.588 52.1335 254.976 51.9569C255.364 51.7802 255.882 51.6847 256.53 51.6703L258.39 51.629L258.412 52.6247L256.66 52.6636C256.149 52.675 255.806 52.7666 255.634 52.9385C255.462 53.1024 255.378 53.3043 255.384 53.5442C255.39 53.8162 255.502 54.0297 255.722 54.1849C255.941 54.34 256.243 54.4133 256.627 54.4048C256.995 54.3966 257.321 54.3054 257.605 54.131C257.897 53.9565 258.104 53.7038 258.225 53.3731L258.496 54.2673C258.361 54.6464 258.107 54.9441 257.736 55.1604C257.373 55.3765 256.907 55.4909 256.339 55.5035ZM261.693 55.3005L261.496 46.3987L262.995 46.3654L263.193 55.2672L261.693 55.3005ZM265.161 55.2235L265.019 48.8171L266.446 48.7853L266.486 50.5489L266.306 50.0368C266.489 49.6006 266.781 49.266 267.184 49.033C267.595 48.7998 268.108 48.6764 268.724 48.6627L268.756 50.0904C268.692 50.0758 268.632 50.0691 268.576 50.0704C268.519 50.0636 268.463 50.0609 268.407 50.0621C267.839 50.0747 267.391 50.2527 267.063 50.5961C266.734 50.9315 266.577 51.4271 266.592 52.0829L266.661 55.1902L265.161 55.2235ZM270.14 55.1129L269.998 48.7064L271.498 48.6731L271.64 55.0796L270.14 55.1129ZM270.73 47.6339C270.451 47.6401 270.217 47.5573 270.029 47.3854C269.849 47.2134 269.756 47.0034 269.751 46.7555C269.745 46.4995 269.828 46.2856 270.001 46.1138C270.181 45.9337 270.411 45.8406 270.69 45.8344C270.97 45.8281 271.2 45.9071 271.38 46.0711C271.567 46.227 271.664 46.4289 271.669 46.6768C271.675 46.9408 271.592 47.1667 271.42 47.3545C271.248 47.5344 271.018 47.6275 270.73 47.6339ZM276.565 57.3827C275.973 57.3959 275.392 57.3288 274.82 57.1814C274.257 57.0419 273.792 56.8282 273.426 56.5403L274.072 55.3976C274.358 55.6233 274.714 55.7995 275.14 55.926C275.576 56.0604 276.013 56.1227 276.453 56.1129C277.157 56.0973 277.669 55.9219 277.99 55.5867C278.31 55.2595 278.464 54.7719 278.449 54.1241L278.424 52.9844L278.512 51.5301L278.431 50.0795L278.397 48.5199L279.824 48.4882L279.945 53.9228C279.971 55.0825 279.694 55.9409 279.114 56.4979C278.535 57.0629 277.685 57.3579 276.565 57.3827ZM276.313 54.6877C275.705 54.7012 275.151 54.5855 274.649 54.3405C274.155 54.0874 273.759 53.7322 273.461 53.2747C273.171 52.817 273.019 52.2762 273.005 51.6524C272.991 51.0365 273.119 50.4936 273.389 50.0235C273.667 49.5532 274.046 49.1847 274.529 48.9179C275.019 48.6509 275.568 48.5107 276.176 48.4972C276.72 48.4851 277.21 48.5822 277.647 48.7886C278.083 48.995 278.435 49.3232 278.701 49.7734C278.975 50.2235 279.12 50.8044 279.135 51.5162C279.151 52.228 279.032 52.8188 278.779 53.2886C278.533 53.7501 278.197 54.0977 277.77 54.3312C277.343 54.5568 276.857 54.6756 276.313 54.6877ZM276.513 53.4109C276.889 53.4026 277.223 53.3191 277.516 53.1606C277.808 52.9941 278.031 52.773 278.185 52.4976C278.347 52.2139 278.424 51.8921 278.416 51.5322C278.408 51.1723 278.317 50.8582 278.143 50.59C277.976 50.3136 277.744 50.1068 277.445 49.9694C277.145 49.824 276.808 49.7555 276.432 49.7638C276.056 49.7722 275.718 49.8557 275.417 50.0144C275.124 50.165 274.897 50.3821 274.736 50.6657C274.582 50.9412 274.509 51.2589 274.517 51.6188C274.525 51.9787 274.612 52.2969 274.778 52.5732C274.952 52.8414 275.189 53.0522 275.488 53.2056C275.795 53.3508 276.137 53.4193 276.513 53.4109ZM285.429 48.2916C285.941 48.2803 286.399 48.3701 286.804 48.5612C287.216 48.7521 287.543 49.0529 287.784 49.4636C288.025 49.8664 288.153 50.3917 288.167 51.0395L288.249 54.7106L286.749 54.7439L286.672 51.2648C286.659 50.6969 286.514 50.276 286.236 50.0021C285.965 49.7281 285.59 49.5964 285.111 49.607C284.759 49.6148 284.448 49.6938 284.18 49.8438C283.911 49.9938 283.704 50.2144 283.558 50.5057C283.42 50.7889 283.356 51.1464 283.366 51.5783L283.438 54.8175L281.938 54.8508L281.741 45.949L283.24 45.9157L283.334 50.1386L282.998 49.6179C283.213 49.2051 283.53 48.886 283.949 48.6606C284.376 48.427 284.87 48.3041 285.429 48.2916ZM292.564 54.6987C291.861 54.7144 291.313 54.5465 290.921 54.1951C290.529 53.8357 290.325 53.3001 290.309 52.5883L290.181 46.8417L291.681 46.8084L291.808 52.519C291.815 52.8229 291.896 53.0572 292.051 53.2218C292.215 53.3862 292.437 53.4653 292.717 53.459C293.053 53.4516 293.331 53.3574 293.551 53.1765L293.994 54.2349C293.822 54.3827 293.608 54.4955 293.354 54.5732C293.099 54.6508 292.836 54.6927 292.564 54.6987ZM289.185 49.5285L289.158 48.3288L293.429 48.2339L293.456 49.4336L289.185 49.5285ZM296.678 51.7387C296.671 51.4427 296.713 51.1817 296.804 50.9556C296.895 50.7296 297.015 50.5269 297.163 50.3475C297.311 50.1682 297.467 50.0007 297.632 49.845C297.805 49.6891 297.965 49.5375 298.114 49.3902C298.263 49.2428 298.383 49.0881 298.476 48.926C298.568 48.7639 298.612 48.5829 298.608 48.383C298.6 48.047 298.458 47.7781 298.182 47.5762C297.905 47.3743 297.539 47.2784 297.083 47.2886C296.643 47.2983 296.261 47.3868 295.937 47.5541C295.62 47.7212 295.357 47.955 295.148 48.2558L293.968 47.5258C294.293 47.0625 294.725 46.6968 295.264 46.4288C295.802 46.1527 296.442 46.0065 297.186 45.9899C297.77 45.977 298.284 46.0536 298.728 46.2198C299.171 46.378 299.521 46.6183 299.776 46.9407C300.031 47.2551 300.164 47.6442 300.174 48.1081C300.181 48.428 300.135 48.7091 300.037 48.9514C299.946 49.1934 299.823 49.4082 299.667 49.5957C299.519 49.7751 299.359 49.9467 299.186 50.1105C299.014 50.2664 298.849 50.4221 298.693 50.5776C298.544 50.733 298.424 50.8997 298.332 51.0778C298.239 51.2559 298.196 51.4649 298.201 51.7048L296.678 51.7387ZM297.509 54.5889C297.229 54.5951 296.995 54.5083 296.807 54.3284C296.627 54.1484 296.534 53.9304 296.529 53.6744C296.523 53.4185 296.606 53.2006 296.778 53.0207C296.958 52.8327 297.188 52.7356 297.468 52.7294C297.748 52.7231 297.978 52.81 298.158 52.9901C298.338 53.1621 298.431 53.3761 298.436 53.6321C298.442 53.888 298.359 54.1099 298.187 54.2978C298.015 54.4856 297.789 54.5827 297.509 54.5889Z" fill="#181A1E"/>
<path d="M180.921 84.1402C180.143 85.162 178.617 85.1959 177.794 84.2096L169.157 73.8571C168.084 72.5706 168.974 70.6136 170.649 70.5764L187.454 70.203C189.129 70.1658 190.105 72.0814 189.09 73.4143L180.921 84.1402Z" fill="#EBF0FB"/>
<rect x="179.666" y="86" width="221" height="46" rx="23" fill="#FFFAF4"/>
<path d="M198.186 111.02L198.102 109.172L202.506 104.6H204.258L200.598 108.488L199.734 109.436L198.186 111.02ZM196.794 113V104.6H198.354V113H196.794ZM202.65 113L199.434 109.172L200.466 108.032L204.474 113H202.65ZM205.392 113V106.592H206.892V113H205.392ZM206.148 105.536C205.868 105.536 205.636 105.448 205.452 105.272C205.276 105.096 205.188 104.884 205.188 104.636C205.188 104.38 205.276 104.168 205.452 104C205.636 103.824 205.868 103.736 206.148 103.736C206.428 103.736 206.656 103.82 206.832 103.988C207.016 104.148 207.108 104.352 207.108 104.6C207.108 104.864 207.02 105.088 206.844 105.272C206.668 105.448 206.436 105.536 206.148 105.536ZM212.497 106.52C213.009 106.52 213.465 106.62 213.865 106.82C214.273 107.02 214.593 107.328 214.825 107.744C215.057 108.152 215.173 108.68 215.173 109.328V113H213.673V109.52C213.673 108.952 213.537 108.528 213.265 108.248C213.001 107.968 212.629 107.828 212.149 107.828C211.797 107.828 211.485 107.9 211.213 108.044C210.941 108.188 210.729 108.404 210.577 108.692C210.433 108.972 210.361 109.328 210.361 109.76V113H208.861V106.592H210.289V108.32L210.037 107.792C210.261 107.384 210.585 107.072 211.009 106.856C211.441 106.632 211.937 106.52 212.497 106.52ZM219.8 113.084C219.184 113.084 218.628 112.948 218.132 112.676C217.644 112.396 217.26 112.012 216.98 111.524C216.7 111.036 216.56 110.46 216.56 109.796C216.56 109.132 216.7 108.556 216.98 108.068C217.26 107.58 217.644 107.2 218.132 106.928C218.628 106.656 219.184 106.52 219.8 106.52C220.336 106.52 220.816 106.64 221.24 106.88C221.664 107.112 222 107.468 222.248 107.948C222.496 108.428 222.62 109.044 222.62 109.796C222.62 110.54 222.5 111.156 222.26 111.644C222.02 112.124 221.688 112.484 221.264 112.724C220.84 112.964 220.352 113.084 219.8 113.084ZM219.98 111.8C220.34 111.8 220.66 111.72 220.94 111.56C221.228 111.4 221.456 111.168 221.624 110.864C221.8 110.56 221.888 110.204 221.888 109.796C221.888 109.38 221.8 109.024 221.624 108.728C221.456 108.424 221.228 108.192 220.94 108.032C220.66 107.872 220.34 107.792 219.98 107.792C219.62 107.792 219.296 107.872 219.008 108.032C218.728 108.192 218.5 108.424 218.324 108.728C218.156 109.024 218.072 109.38 218.072 109.796C218.072 110.204 218.156 110.56 218.324 110.864C218.5 111.168 218.728 111.4 219.008 111.56C219.296 111.72 219.62 111.8 219.98 111.8ZM221.924 113V111.488L221.984 109.784L221.864 108.08V104.096H223.352V113H221.924ZM229.274 113V111.704L229.19 111.428V109.16C229.19 108.72 229.058 108.38 228.794 108.14C228.53 107.892 228.13 107.768 227.594 107.768C227.234 107.768 226.878 107.824 226.526 107.936C226.182 108.048 225.89 108.204 225.65 108.404L225.062 107.312C225.406 107.048 225.814 106.852 226.286 106.724C226.766 106.588 227.262 106.52 227.774 106.52C228.702 106.52 229.418 106.744 229.922 107.192C230.434 107.632 230.69 108.316 230.69 109.244V113H229.274ZM227.258 113.084C226.778 113.084 226.358 113.004 225.998 112.844C225.638 112.676 225.358 112.448 225.158 112.16C224.966 111.864 224.87 111.532 224.87 111.164C224.87 110.804 224.954 110.48 225.122 110.192C225.298 109.904 225.582 109.676 225.974 109.508C226.366 109.34 226.886 109.256 227.534 109.256H229.394V110.252H227.642C227.13 110.252 226.786 110.336 226.61 110.504C226.434 110.664 226.346 110.864 226.346 111.104C226.346 111.376 226.454 111.592 226.67 111.752C226.886 111.912 227.186 111.992 227.57 111.992C227.938 111.992 228.266 111.908 228.554 111.74C228.85 111.572 229.062 111.324 229.19 110.996L229.442 111.896C229.298 112.272 229.038 112.564 228.662 112.772C228.294 112.98 227.826 113.084 227.258 113.084ZM232.219 114.812L232.915 112.16L233.119 113.048C232.839 113.048 232.603 112.964 232.411 112.796C232.227 112.62 232.135 112.384 232.135 112.088C232.135 111.784 232.227 111.544 232.411 111.368C232.603 111.184 232.835 111.092 233.107 111.092C233.387 111.092 233.619 111.184 233.803 111.368C233.987 111.552 234.079 111.792 234.079 112.088C234.079 112.168 234.071 112.256 234.055 112.352C234.039 112.44 234.011 112.544 233.971 112.664C233.939 112.784 233.883 112.936 233.803 113.12L233.191 114.812H232.219ZM242.413 113.084C241.869 113.084 241.385 112.964 240.961 112.724C240.537 112.484 240.201 112.124 239.953 111.644C239.713 111.156 239.593 110.54 239.593 109.796C239.593 109.044 239.717 108.428 239.965 107.948C240.221 107.468 240.561 107.112 240.985 106.88C241.417 106.64 241.893 106.52 242.413 106.52C243.045 106.52 243.601 106.656 244.081 106.928C244.569 107.2 244.953 107.58 245.233 108.068C245.521 108.556 245.665 109.132 245.665 109.796C245.665 110.46 245.521 111.036 245.233 111.524C244.953 112.012 244.569 112.396 244.081 112.676C243.601 112.948 243.045 113.084 242.413 113.084ZM238.861 113V104.096H240.361V108.08L240.241 109.784L240.289 111.488V113H238.861ZM242.245 111.8C242.605 111.8 242.925 111.72 243.205 111.56C243.493 111.4 243.721 111.168 243.889 110.864C244.057 110.56 244.141 110.204 244.141 109.796C244.141 109.38 244.057 109.024 243.889 108.728C243.721 108.424 243.493 108.192 243.205 108.032C242.925 107.872 242.605 107.792 242.245 107.792C241.885 107.792 241.561 107.872 241.273 108.032C240.985 108.192 240.757 108.424 240.589 108.728C240.421 109.024 240.337 109.38 240.337 109.796C240.337 110.204 240.421 110.56 240.589 110.864C240.757 111.168 240.985 111.4 241.273 111.56C241.561 111.72 241.885 111.8 242.245 111.8ZM249.8 113.084C249.256 113.084 248.776 112.984 248.36 112.784C247.944 112.576 247.62 112.264 247.388 111.848C247.156 111.424 247.04 110.892 247.04 110.252V106.592H248.54V110.048C248.54 110.624 248.668 111.056 248.924 111.344C249.188 111.624 249.56 111.764 250.04 111.764C250.392 111.764 250.696 111.692 250.952 111.548C251.216 111.404 251.42 111.188 251.564 110.9C251.716 110.612 251.792 110.256 251.792 109.832V106.592H253.292V113H251.864V111.272L252.116 111.8C251.9 112.216 251.584 112.536 251.168 112.76C250.752 112.976 250.296 113.084 249.8 113.084ZM257.668 113.084C256.964 113.084 256.42 112.904 256.036 112.544C255.652 112.176 255.46 111.636 255.46 110.924V105.176H256.96V110.888C256.96 111.192 257.036 111.428 257.188 111.596C257.348 111.764 257.568 111.848 257.848 111.848C258.184 111.848 258.464 111.76 258.688 111.584L259.108 112.652C258.932 112.796 258.716 112.904 258.46 112.976C258.204 113.048 257.94 113.084 257.668 113.084ZM254.404 107.84V106.64H258.676V107.84H254.404ZM263.802 113V104.6H265.362V113H263.802ZM273.747 113.084C273.075 113.084 272.475 112.944 271.947 112.664C271.427 112.376 271.019 111.984 270.723 111.488C270.427 110.992 270.279 110.428 270.279 109.796C270.279 109.156 270.427 108.592 270.723 108.104C271.019 107.608 271.427 107.22 271.947 106.94C272.475 106.66 273.075 106.52 273.747 106.52C274.371 106.52 274.919 106.648 275.391 106.904C275.871 107.152 276.235 107.52 276.483 108.008L275.331 108.68C275.139 108.376 274.903 108.152 274.623 108.008C274.351 107.864 274.055 107.792 273.735 107.792C273.367 107.792 273.035 107.872 272.739 108.032C272.443 108.192 272.211 108.424 272.043 108.728C271.875 109.024 271.791 109.38 271.791 109.796C271.791 110.212 271.875 110.572 272.043 110.876C272.211 111.172 272.443 111.4 272.739 111.56C273.035 111.72 273.367 111.8 273.735 111.8C274.055 111.8 274.351 111.728 274.623 111.584C274.903 111.44 275.139 111.216 275.331 110.912L276.483 111.584C276.235 112.064 275.871 112.436 275.391 112.7C274.919 112.956 274.371 113.084 273.747 113.084ZM280.565 113.084C279.909 113.084 279.325 112.944 278.813 112.664C278.301 112.376 277.897 111.984 277.601 111.488C277.305 110.992 277.157 110.428 277.157 109.796C277.157 109.156 277.305 108.592 277.601 108.104C277.897 107.608 278.301 107.22 278.813 106.94C279.325 106.66 279.909 106.52 280.565 106.52C281.229 106.52 281.817 106.66 282.329 106.94C282.849 107.22 283.253 107.604 283.541 108.092C283.837 108.58 283.985 109.148 283.985 109.796C283.985 110.428 283.837 110.992 283.541 111.488C283.253 111.984 282.849 112.376 282.329 112.664C281.817 112.944 281.229 113.084 280.565 113.084ZM280.565 111.8C280.933 111.8 281.261 111.72 281.549 111.56C281.837 111.4 282.061 111.168 282.221 110.864C282.389 110.56 282.473 110.204 282.473 109.796C282.473 109.38 282.389 109.024 282.221 108.728C282.061 108.424 281.837 108.192 281.549 108.032C281.261 107.872 280.937 107.792 280.577 107.792C280.209 107.792 279.881 107.872 279.593 108.032C279.313 108.192 279.089 108.424 278.921 108.728C278.753 109.024 278.669 109.38 278.669 109.796C278.669 110.204 278.753 110.56 278.921 110.864C279.089 111.168 279.313 111.4 279.593 111.56C279.881 111.72 280.205 111.8 280.565 111.8ZM288.132 113.084C287.588 113.084 287.108 112.984 286.692 112.784C286.276 112.576 285.952 112.264 285.72 111.848C285.488 111.424 285.372 110.892 285.372 110.252V106.592H286.872V110.048C286.872 110.624 287 111.056 287.256 111.344C287.52 111.624 287.892 111.764 288.372 111.764C288.724 111.764 289.028 111.692 289.284 111.548C289.548 111.404 289.752 111.188 289.896 110.9C290.048 110.612 290.124 110.256 290.124 109.832V106.592H291.624V113H290.196V111.272L290.448 111.8C290.232 112.216 289.916 112.536 289.5 112.76C289.084 112.976 288.628 113.084 288.132 113.084ZM293.588 113V104.096H295.088V113H293.588ZM299.769 113.084C299.153 113.084 298.597 112.948 298.101 112.676C297.613 112.396 297.229 112.012 296.949 111.524C296.669 111.036 296.529 110.46 296.529 109.796C296.529 109.132 296.669 108.556 296.949 108.068C297.229 107.58 297.613 107.2 298.101 106.928C298.597 106.656 299.153 106.52 299.769 106.52C300.305 106.52 300.785 106.64 301.209 106.88C301.633 107.112 301.969 107.468 302.217 107.948C302.465 108.428 302.589 109.044 302.589 109.796C302.589 110.54 302.469 111.156 302.229 111.644C301.989 112.124 301.657 112.484 301.233 112.724C300.809 112.964 300.321 113.084 299.769 113.084ZM299.949 111.8C300.309 111.8 300.629 111.72 300.909 111.56C301.197 111.4 301.425 111.168 301.593 110.864C301.769 110.56 301.857 110.204 301.857 109.796C301.857 109.38 301.769 109.024 301.593 108.728C301.425 108.424 301.197 108.192 300.909 108.032C300.629 107.872 300.309 107.792 299.949 107.792C299.589 107.792 299.265 107.872 298.977 108.032C298.697 108.192 298.469 108.424 298.293 108.728C298.125 109.024 298.041 109.38 298.041 109.796C298.041 110.204 298.125 110.56 298.293 110.864C298.469 111.168 298.697 111.4 298.977 111.56C299.265 111.72 299.589 111.8 299.949 111.8ZM301.893 113V111.488L301.953 109.784L301.833 108.08V104.096H303.321V113H301.893ZM311.323 113.084C310.779 113.084 310.299 112.984 309.883 112.784C309.467 112.576 309.143 112.264 308.911 111.848C308.679 111.424 308.563 110.892 308.563 110.252V106.592H310.063V110.048C310.063 110.624 310.191 111.056 310.447 111.344C310.711 111.624 311.083 111.764 311.563 111.764C311.915 111.764 312.219 111.692 312.475 111.548C312.739 111.404 312.943 111.188 313.087 110.9C313.239 110.612 313.315 110.256 313.315 109.832V106.592H314.815V113H313.387V111.272L313.639 111.8C313.423 112.216 313.107 112.536 312.691 112.76C312.275 112.976 311.819 113.084 311.323 113.084ZM318.759 113.084C318.223 113.084 317.707 113.016 317.211 112.88C316.723 112.736 316.335 112.564 316.047 112.364L316.623 111.224C316.911 111.408 317.255 111.56 317.655 111.68C318.055 111.8 318.455 111.86 318.855 111.86C319.327 111.86 319.667 111.796 319.875 111.668C320.091 111.54 320.199 111.368 320.199 111.152C320.199 110.976 320.127 110.844 319.983 110.756C319.839 110.66 319.651 110.588 319.419 110.54C319.187 110.492 318.927 110.448 318.639 110.408C318.359 110.368 318.075 110.316 317.787 110.252C317.507 110.18 317.251 110.08 317.019 109.952C316.787 109.816 316.599 109.636 316.455 109.412C316.311 109.188 316.239 108.892 316.239 108.524C316.239 108.116 316.355 107.764 316.587 107.468C316.819 107.164 317.143 106.932 317.559 106.772C317.983 106.604 318.483 106.52 319.059 106.52C319.491 106.52 319.927 106.568 320.367 106.664C320.807 106.76 321.171 106.896 321.459 107.072L320.883 108.212C320.579 108.028 320.271 107.904 319.959 107.84C319.655 107.768 319.351 107.732 319.047 107.732C318.591 107.732 318.251 107.8 318.027 107.936C317.811 108.072 317.703 108.244 317.703 108.452C317.703 108.644 317.775 108.788 317.919 108.884C318.063 108.98 318.251 109.056 318.483 109.112C318.715 109.168 318.971 109.216 319.251 109.256C319.539 109.288 319.823 109.34 320.103 109.412C320.383 109.484 320.639 109.584 320.871 109.712C321.111 109.832 321.303 110.004 321.447 110.228C321.591 110.452 321.663 110.744 321.663 111.104C321.663 111.504 321.543 111.852 321.303 112.148C321.071 112.444 320.739 112.676 320.307 112.844C319.875 113.004 319.359 113.084 318.759 113.084ZM325.967 113.084C325.255 113.084 324.631 112.944 324.095 112.664C323.567 112.376 323.155 111.984 322.859 111.488C322.571 110.992 322.427 110.428 322.427 109.796C322.427 109.156 322.567 108.592 322.847 108.104C323.135 107.608 323.527 107.22 324.023 106.94C324.527 106.66 325.099 106.52 325.739 106.52C326.363 106.52 326.919 106.656 327.407 106.928C327.895 107.2 328.279 107.584 328.559 108.08C328.839 108.576 328.979 109.16 328.979 109.832C328.979 109.896 328.975 109.968 328.967 110.048C328.967 110.128 328.963 110.204 328.955 110.276H323.615V109.28H328.163L327.575 109.592C327.583 109.224 327.507 108.9 327.347 108.62C327.187 108.34 326.967 108.12 326.687 107.96C326.415 107.8 326.099 107.72 325.739 107.72C325.371 107.72 325.047 107.8 324.767 107.96C324.495 108.12 324.279 108.344 324.119 108.632C323.967 108.912 323.891 109.244 323.891 109.628V109.868C323.891 110.252 323.979 110.592 324.155 110.888C324.331 111.184 324.579 111.412 324.899 111.572C325.219 111.732 325.587 111.812 326.003 111.812C326.363 111.812 326.687 111.756 326.975 111.644C327.263 111.532 327.519 111.356 327.743 111.116L328.547 112.04C328.259 112.376 327.895 112.636 327.455 112.82C327.023 112.996 326.527 113.084 325.967 113.084ZM337.684 113V111.704L337.6 111.428V109.16C337.6 108.72 337.468 108.38 337.204 108.14C336.94 107.892 336.54 107.768 336.004 107.768C335.644 107.768 335.288 107.824 334.936 107.936C334.592 108.048 334.3 108.204 334.06 108.404L333.472 107.312C333.816 107.048 334.224 106.852 334.696 106.724C335.176 106.588 335.672 106.52 336.184 106.52C337.112 106.52 337.828 106.744 338.332 107.192C338.844 107.632 339.1 108.316 339.1 109.244V113H337.684ZM335.668 113.084C335.188 113.084 334.768 113.004 334.408 112.844C334.048 112.676 333.768 112.448 333.568 112.16C333.376 111.864 333.28 111.532 333.28 111.164C333.28 110.804 333.364 110.48 333.532 110.192C333.708 109.904 333.992 109.676 334.384 109.508C334.776 109.34 335.296 109.256 335.944 109.256H337.804V110.252H336.052C335.54 110.252 335.196 110.336 335.02 110.504C334.844 110.664 334.756 110.864 334.756 111.104C334.756 111.376 334.864 111.592 335.08 111.752C335.296 111.912 335.596 111.992 335.98 111.992C336.348 111.992 336.676 111.908 336.964 111.74C337.26 111.572 337.472 111.324 337.6 110.996L337.852 111.896C337.708 112.272 337.448 112.564 337.072 112.772C336.704 112.98 336.236 113.084 335.668 113.084ZM347.282 113.084C346.61 113.084 346.01 112.944 345.482 112.664C344.962 112.376 344.554 111.984 344.258 111.488C343.962 110.992 343.814 110.428 343.814 109.796C343.814 109.156 343.962 108.592 344.258 108.104C344.554 107.608 344.962 107.22 345.482 106.94C346.01 106.66 346.61 106.52 347.282 106.52C347.906 106.52 348.454 106.648 348.926 106.904C349.406 107.152 349.77 107.52 350.018 108.008L348.866 108.68C348.674 108.376 348.438 108.152 348.158 108.008C347.886 107.864 347.59 107.792 347.27 107.792C346.902 107.792 346.57 107.872 346.274 108.032C345.978 108.192 345.746 108.424 345.578 108.728C345.41 109.024 345.326 109.38 345.326 109.796C345.326 110.212 345.41 110.572 345.578 110.876C345.746 111.172 345.978 111.4 346.274 111.56C346.57 111.72 346.902 111.8 347.27 111.8C347.59 111.8 347.886 111.728 348.158 111.584C348.438 111.44 348.674 111.216 348.866 110.912L350.018 111.584C349.77 112.064 349.406 112.436 348.926 112.7C348.454 112.956 347.906 113.084 347.282 113.084ZM354.101 113.084C353.445 113.084 352.861 112.944 352.349 112.664C351.837 112.376 351.433 111.984 351.137 111.488C350.841 110.992 350.693 110.428 350.693 109.796C350.693 109.156 350.841 108.592 351.137 108.104C351.433 107.608 351.837 107.22 352.349 106.94C352.861 106.66 353.445 106.52 354.101 106.52C354.765 106.52 355.353 106.66 355.865 106.94C356.385 107.22 356.789 107.604 357.077 108.092C357.373 108.58 357.521 109.148 357.521 109.796C357.521 110.428 357.373 110.992 357.077 111.488C356.789 111.984 356.385 112.376 355.865 112.664C355.353 112.944 354.765 113.084 354.101 113.084ZM354.101 111.8C354.469 111.8 354.797 111.72 355.085 111.56C355.373 111.4 355.597 111.168 355.757 110.864C355.925 110.56 356.009 110.204 356.009 109.796C356.009 109.38 355.925 109.024 355.757 108.728C355.597 108.424 355.373 108.192 355.085 108.032C354.797 107.872 354.473 107.792 354.113 107.792C353.745 107.792 353.417 107.872 353.129 108.032C352.849 108.192 352.625 108.424 352.457 108.728C352.289 109.024 352.205 109.38 352.205 109.796C352.205 110.204 352.289 110.56 352.457 110.864C352.625 111.168 352.849 111.4 353.129 111.56C353.417 111.72 353.741 111.8 354.101 111.8ZM359.159 113V106.232C359.159 105.56 359.355 105.024 359.747 104.624C360.147 104.216 360.715 104.012 361.451 104.012C361.715 104.012 361.963 104.04 362.195 104.096C362.435 104.152 362.635 104.24 362.795 104.36L362.387 105.488C362.275 105.4 362.147 105.336 362.003 105.296C361.859 105.248 361.711 105.224 361.559 105.224C361.247 105.224 361.011 105.312 360.851 105.488C360.691 105.656 360.611 105.912 360.611 106.256V106.976L360.659 107.648V113H359.159ZM358.103 107.84V106.64H362.375V107.84H358.103ZM363.624 113V106.232C363.624 105.56 363.82 105.024 364.212 104.624C364.612 104.216 365.18 104.012 365.916 104.012C366.18 104.012 366.428 104.04 366.66 104.096C366.9 104.152 367.1 104.24 367.26 104.36L366.852 105.488C366.74 105.4 366.612 105.336 366.468 105.296C366.324 105.248 366.176 105.224 366.024 105.224C365.712 105.224 365.476 105.312 365.316 105.488C365.156 105.656 365.076 105.912 365.076 106.256V106.976L365.124 107.648V113H363.624ZM362.568 107.84V106.64H366.84V107.84H362.568ZM370.768 113.084C370.056 113.084 369.432 112.944 368.896 112.664C368.368 112.376 367.956 111.984 367.66 111.488C367.372 110.992 367.228 110.428 367.228 109.796C367.228 109.156 367.368 108.592 367.648 108.104C367.936 107.608 368.328 107.22 368.824 106.94C369.328 106.66 369.9 106.52 370.54 106.52C371.164 106.52 371.72 106.656 372.208 106.928C372.696 107.2 373.08 107.584 373.36 108.08C373.64 108.576 373.78 109.16 373.78 109.832C373.78 109.896 373.776 109.968 373.768 110.048C373.768 110.128 373.764 110.204 373.756 110.276H368.416V109.28H372.964L372.376 109.592C372.384 109.224 372.308 108.9 372.148 108.62C371.988 108.34 371.768 108.12 371.488 107.96C371.216 107.8 370.9 107.72 370.54 107.72C370.172 107.72 369.848 107.8 369.568 107.96C369.296 108.12 369.08 108.344 368.92 108.632C368.768 108.912 368.692 109.244 368.692 109.628V109.868C368.692 110.252 368.78 110.592 368.956 110.888C369.132 111.184 369.38 111.412 369.7 111.572C370.02 111.732 370.388 111.812 370.804 111.812C371.164 111.812 371.488 111.756 371.776 111.644C372.064 111.532 372.32 111.356 372.544 111.116L373.348 112.04C373.06 112.376 372.696 112.636 372.256 112.82C371.824 112.996 371.328 113.084 370.768 113.084ZM378.233 113.084C377.521 113.084 376.897 112.944 376.361 112.664C375.833 112.376 375.421 111.984 375.125 111.488C374.837 110.992 374.693 110.428 374.693 109.796C374.693 109.156 374.833 108.592 375.113 108.104C375.401 107.608 375.793 107.22 376.289 106.94C376.793 106.66 377.365 106.52 378.005 106.52C378.629 106.52 379.185 106.656 379.673 106.928C380.161 107.2 380.545 107.584 380.825 108.08C381.105 108.576 381.245 109.16 381.245 109.832C381.245 109.896 381.241 109.968 381.233 110.048C381.233 110.128 381.229 110.204 381.221 110.276H375.881V109.28H380.429L379.841 109.592C379.849 109.224 379.773 108.9 379.613 108.62C379.453 108.34 379.233 108.12 378.953 107.96C378.681 107.8 378.365 107.72 378.005 107.72C377.637 107.72 377.313 107.8 377.033 107.96C376.761 108.12 376.545 108.344 376.385 108.632C376.233 108.912 376.157 109.244 376.157 109.628V109.868C376.157 110.252 376.245 110.592 376.421 110.888C376.597 111.184 376.845 111.412 377.165 111.572C377.485 111.732 377.853 111.812 378.269 111.812C378.629 111.812 378.953 111.756 379.241 111.644C379.529 111.532 379.785 111.356 380.009 111.116L380.813 112.04C380.525 112.376 380.161 112.636 379.721 112.82C379.289 112.996 378.793 113.084 378.233 113.084ZM383.165 113.084C382.893 113.084 382.661 112.992 382.469 112.808C382.277 112.616 382.181 112.376 382.181 112.088C382.181 111.784 382.277 111.544 382.469 111.368C382.661 111.184 382.893 111.092 383.165 111.092C383.437 111.092 383.669 111.184 383.861 111.368C384.053 111.544 384.149 111.784 384.149 112.088C384.149 112.376 384.053 112.616 383.861 112.808C383.669 112.992 383.437 113.084 383.165 113.084Z" fill="#181A1E"/>
<path d="M368.602 79.9614C369.403 78.9571 370.929 78.9571 371.73 79.9614L380.135 90.5032C381.179 91.8133 380.247 93.75 378.571 93.75H361.761C360.086 93.75 359.153 91.8132 360.198 90.5032L368.602 79.9614Z" fill="#FFFAF4"/>
<rect x="273.666" y="138" width="127" height="46" rx="23" fill="#FFFAF4"/>
<path d="M289.606 165L293.386 156.6H294.922L298.714 165H297.082L293.83 157.428H294.454L291.214 165H289.606ZM291.346 163.056L291.766 161.832H296.302L296.722 163.056H291.346ZM304.935 165.084C304.399 165.084 303.883 165.016 303.387 164.88C302.899 164.736 302.511 164.564 302.223 164.364L302.799 163.224C303.087 163.408 303.431 163.56 303.831 163.68C304.231 163.8 304.631 163.86 305.031 163.86C305.503 163.86 305.843 163.796 306.051 163.668C306.267 163.54 306.375 163.368 306.375 163.152C306.375 162.976 306.303 162.844 306.159 162.756C306.015 162.66 305.827 162.588 305.595 162.54C305.363 162.492 305.103 162.448 304.815 162.408C304.535 162.368 304.251 162.316 303.963 162.252C303.683 162.18 303.427 162.08 303.195 161.952C302.963 161.816 302.775 161.636 302.631 161.412C302.487 161.188 302.415 160.892 302.415 160.524C302.415 160.116 302.531 159.764 302.763 159.468C302.995 159.164 303.319 158.932 303.735 158.772C304.159 158.604 304.659 158.52 305.235 158.52C305.667 158.52 306.103 158.568 306.543 158.664C306.983 158.76 307.347 158.896 307.635 159.072L307.059 160.212C306.755 160.028 306.447 159.904 306.135 159.84C305.831 159.768 305.527 159.732 305.223 159.732C304.767 159.732 304.427 159.8 304.203 159.936C303.987 160.072 303.879 160.244 303.879 160.452C303.879 160.644 303.951 160.788 304.095 160.884C304.239 160.98 304.427 161.056 304.659 161.112C304.891 161.168 305.147 161.216 305.427 161.256C305.715 161.288 305.999 161.34 306.279 161.412C306.559 161.484 306.815 161.584 307.047 161.712C307.287 161.832 307.479 162.004 307.623 162.228C307.767 162.452 307.839 162.744 307.839 163.104C307.839 163.504 307.719 163.852 307.479 164.148C307.247 164.444 306.915 164.676 306.483 164.844C306.051 165.004 305.535 165.084 304.935 165.084ZM311.543 165.084C310.839 165.084 310.295 164.904 309.911 164.544C309.527 164.176 309.335 163.636 309.335 162.924V157.176H310.835V162.888C310.835 163.192 310.911 163.428 311.063 163.596C311.223 163.764 311.443 163.848 311.723 163.848C312.059 163.848 312.339 163.76 312.563 163.584L312.983 164.652C312.807 164.796 312.591 164.904 312.335 164.976C312.079 165.048 311.815 165.084 311.543 165.084ZM308.279 159.84V158.64H312.551V159.84H308.279ZM314.217 165V158.592H315.645V160.356L315.477 159.84C315.669 159.408 315.969 159.08 316.377 158.856C316.793 158.632 317.309 158.52 317.925 158.52V159.948C317.861 159.932 317.801 159.924 317.745 159.924C317.689 159.916 317.633 159.912 317.577 159.912C317.009 159.912 316.557 160.08 316.221 160.416C315.885 160.744 315.717 161.236 315.717 161.892V165H314.217ZM322.019 165.084C321.363 165.084 320.779 164.944 320.267 164.664C319.755 164.376 319.351 163.984 319.055 163.488C318.759 162.992 318.611 162.428 318.611 161.796C318.611 161.156 318.759 160.592 319.055 160.104C319.351 159.608 319.755 159.22 320.267 158.94C320.779 158.66 321.363 158.52 322.019 158.52C322.683 158.52 323.271 158.66 323.783 158.94C324.303 159.22 324.707 159.604 324.995 160.092C325.291 160.58 325.439 161.148 325.439 161.796C325.439 162.428 325.291 162.992 324.995 163.488C324.707 163.984 324.303 164.376 323.783 164.664C323.271 164.944 322.683 165.084 322.019 165.084ZM322.019 163.8C322.387 163.8 322.715 163.72 323.003 163.56C323.291 163.4 323.515 163.168 323.675 162.864C323.843 162.56 323.927 162.204 323.927 161.796C323.927 161.38 323.843 161.024 323.675 160.728C323.515 160.424 323.291 160.192 323.003 160.032C322.715 159.872 322.391 159.792 322.031 159.792C321.663 159.792 321.335 159.872 321.047 160.032C320.767 160.192 320.543 160.424 320.375 160.728C320.207 161.024 320.123 161.38 320.123 161.796C320.123 162.204 320.207 162.56 320.375 162.864C320.543 163.168 320.767 163.4 321.047 163.56C321.335 163.72 321.659 163.8 322.019 163.8ZM330.509 158.52C331.021 158.52 331.477 158.62 331.877 158.82C332.285 159.02 332.605 159.328 332.837 159.744C333.069 160.152 333.185 160.68 333.185 161.328V165H331.685V161.52C331.685 160.952 331.549 160.528 331.277 160.248C331.013 159.968 330.641 159.828 330.161 159.828C329.809 159.828 329.497 159.9 329.225 160.044C328.953 160.188 328.741 160.404 328.589 160.692C328.445 160.972 328.373 161.328 328.373 161.76V165H326.873V158.592H328.301V160.32L328.049 159.792C328.273 159.384 328.597 159.072 329.021 158.856C329.453 158.632 329.949 158.52 330.509 158.52ZM338.003 167.412C337.411 167.412 336.831 167.332 336.263 167.172C335.703 167.02 335.243 166.796 334.883 166.5L335.555 165.372C335.835 165.604 336.187 165.788 336.611 165.924C337.043 166.068 337.479 166.14 337.919 166.14C338.623 166.14 339.139 165.976 339.467 165.648C339.795 165.328 339.959 164.844 339.959 164.196V163.056L340.079 161.604L340.031 160.152V158.592H341.459V164.028C341.459 165.188 341.163 166.04 340.571 166.584C339.979 167.136 339.123 167.412 338.003 167.412ZM337.811 164.712C337.203 164.712 336.651 164.584 336.155 164.328C335.667 164.064 335.279 163.7 334.991 163.236C334.711 162.772 334.571 162.228 334.571 161.604C334.571 160.988 334.711 160.448 334.991 159.984C335.279 159.52 335.667 159.16 336.155 158.904C336.651 158.648 337.203 158.52 337.811 158.52C338.355 158.52 338.843 158.628 339.275 158.844C339.707 159.06 340.051 159.396 340.307 159.852C340.571 160.308 340.703 160.892 340.703 161.604C340.703 162.316 340.571 162.904 340.307 163.368C340.051 163.824 339.707 164.164 339.275 164.388C338.843 164.604 338.355 164.712 337.811 164.712ZM338.039 163.44C338.415 163.44 338.751 163.364 339.047 163.212C339.343 163.052 339.571 162.836 339.731 162.564C339.899 162.284 339.983 161.964 339.983 161.604C339.983 161.244 339.899 160.928 339.731 160.656C339.571 160.376 339.343 160.164 339.047 160.02C338.751 159.868 338.415 159.792 338.039 159.792C337.663 159.792 337.323 159.868 337.019 160.02C336.723 160.164 336.491 160.376 336.323 160.656C336.163 160.928 336.083 161.244 336.083 161.604C336.083 161.964 336.163 162.284 336.323 162.564C336.491 162.836 336.723 163.052 337.019 163.212C337.323 163.364 337.663 163.44 338.039 163.44ZM349.628 165.084C348.972 165.084 348.388 164.944 347.876 164.664C347.364 164.376 346.96 163.984 346.664 163.488C346.368 162.992 346.22 162.428 346.22 161.796C346.22 161.156 346.368 160.592 346.664 160.104C346.96 159.608 347.364 159.22 347.876 158.94C348.388 158.66 348.972 158.52 349.628 158.52C350.292 158.52 350.88 158.66 351.392 158.94C351.912 159.22 352.316 159.604 352.604 160.092C352.9 160.58 353.048 161.148 353.048 161.796C353.048 162.428 352.9 162.992 352.604 163.488C352.316 163.984 351.912 164.376 351.392 164.664C350.88 164.944 350.292 165.084 349.628 165.084ZM349.628 163.8C349.996 163.8 350.324 163.72 350.612 163.56C350.9 163.4 351.124 163.168 351.284 162.864C351.452 162.56 351.536 162.204 351.536 161.796C351.536 161.38 351.452 161.024 351.284 160.728C351.124 160.424 350.9 160.192 350.612 160.032C350.324 159.872 350 159.792 349.64 159.792C349.272 159.792 348.944 159.872 348.656 160.032C348.376 160.192 348.152 160.424 347.984 160.728C347.816 161.024 347.732 161.38 347.732 161.796C347.732 162.204 347.816 162.56 347.984 162.864C348.152 163.168 348.376 163.4 348.656 163.56C348.944 163.72 349.268 163.8 349.628 163.8ZM358.118 158.52C358.63 158.52 359.086 158.62 359.486 158.82C359.894 159.02 360.214 159.328 360.446 159.744C360.678 160.152 360.794 160.68 360.794 161.328V165H359.294V161.52C359.294 160.952 359.158 160.528 358.886 160.248C358.622 159.968 358.25 159.828 357.77 159.828C357.418 159.828 357.106 159.9 356.834 160.044C356.562 160.188 356.35 160.404 356.198 160.692C356.054 160.972 355.982 161.328 355.982 161.76V165H354.482V158.592H355.91V160.32L355.658 159.792C355.882 159.384 356.206 159.072 356.63 158.856C357.062 158.632 357.558 158.52 358.118 158.52ZM365.721 165.084C365.009 165.084 364.385 164.944 363.849 164.664C363.321 164.376 362.909 163.984 362.613 163.488C362.325 162.992 362.181 162.428 362.181 161.796C362.181 161.156 362.321 160.592 362.601 160.104C362.889 159.608 363.281 159.22 363.777 158.94C364.281 158.66 364.853 158.52 365.493 158.52C366.117 158.52 366.673 158.656 367.161 158.928C367.649 159.2 368.033 159.584 368.313 160.08C368.593 160.576 368.733 161.16 368.733 161.832C368.733 161.896 368.729 161.968 368.721 162.048C368.721 162.128 368.717 162.204 368.709 162.276H363.369V161.28H367.917L367.329 161.592C367.337 161.224 367.261 160.9 367.101 160.62C366.941 160.34 366.721 160.12 366.441 159.96C366.169 159.8 365.853 159.72 365.493 159.72C365.125 159.72 364.801 159.8 364.521 159.96C364.249 160.12 364.033 160.344 363.873 160.632C363.721 160.912 363.645 161.244 363.645 161.628V161.868C363.645 162.252 363.733 162.592 363.909 162.888C364.085 163.184 364.333 163.412 364.653 163.572C364.973 163.732 365.341 163.812 365.757 163.812C366.117 163.812 366.441 163.756 366.729 163.644C367.017 163.532 367.273 163.356 367.497 163.116L368.301 164.04C368.013 164.376 367.649 164.636 367.209 164.82C366.777 164.996 366.281 165.084 365.721 165.084ZM372.506 165.84H384.506V153.84H372.506V165.84Z" fill="#181A1E"/>
</g>
<defs>
<clipPath id="clip0_215_14391">
<rect width="542.667" height="214" rx="20" fill="white"/>
</clipPath>
</defs>
</svg>
